#!OML:ASF I:\Actors\actors\Patient Classification 2\Patient 1\Session 1\actor1.ASF
:FULLY-SPECIFIED
:DEGREES
752
root -1.48036 18.477 6.23659 -6.62093 -0.608687 -3.24305
lowerback 8.90731 0.0667464 1.65831
upperback 1.22012 0.33265 2.07285
thorax -3.73202 0.154321 1.17604
lowerneck -9.75187 -5.26166 -4.56911
upperneck 39.1398 -7.21077 0.739475
head 15.6459 -3.64675 -0.015357
rclavicle -8.05233e-015 1.21259e-014
rhumerus 2.55425 -10.025 -58.6647
rradius 113.242
rwrist -49.6752
rhand -1.03961 -27.4086
rfingers 7.12502
rthumb 24.5942 -55.8486
lclavicle -8.05233e-015 1.21259e-014
lhumerus 11.7937 -0.419106 54.413
lradius 113.745
lwrist 66.1175
lhand -11.5526 -29.7746
lfingers 7.12502
lthumb 14.4881 -0.300415
rfemur 17.9201 2.47227 20.1561
rtibia -2.22639e-014
rfoot -19.4768 -11.8884
rtoes -16.8046
lfemur 3.09332 -3.91107 -9.00454
ltibia 23.8981
lfoot -22.2655 9.18954
ltoes -60.0176
753
root -1.47978 18.4801 6.2347 -6.53399 -0.6574 -3.269
lowerback 8.99038 0.0258165 1.65921
upperback 1.24733 0.281171 2.09994
thorax -3.74975 0.128867 1.20989
lowerneck -8.99547 -5.1978 -4.89185
upperneck 39.8019 -7.07317 0.691542
head 15.8187 -3.6498 0.0570052
rclavicle 6.34286e-015 2.80286e-014
rhumerus 5.01064 -10.3341 -58.3309
rradius 113.914
rwrist -50.0789
rhand -0.40649 -27.1605
rfingers 7.12502
rthumb 25.201 -55.5166
lclavicle 6.34286e-015 2.80286e-014
lhumerus 13.8936 0.427726 54.3619
lradius 114.58
lwrist 66.7007
lhand -11.3677 -30.3245
lfingers 7.12502
lthumb 14.6662 -0.863157
rfemur 17.8114 2.51799 20.1839
rtibia -3.02153e-014
rfoot -19.4456 -11.9239
rtoes -16.8285
lfemur 2.99521 -3.77582 -8.94103
ltibia 23.8915
lfoot -22.1612 9.16885
ltoes -60.0735
754
root -1.47886 18.4843 6.2313 -6.43893 -0.720315 -3.36622
lowerback 9.16174 -0.00719247 1.73414
upperback 1.30289 0.24917 2.11805
thorax -3.78698 0.111958 1.19063
lowerneck -8.36482 -5.16177 -5.21314
upperneck 40.4242 -6.9896 0.683386
head 16.0101 -3.67015 0.133523
rclavicle -6.75557e-015 -3.85642e-014
rhumerus 7.34962 -10.7363 -58.0927
rradius 114.659
rwrist -50.4442
rhand 0.235887 -27.266
rfingers 7.12502
rthumb 25.8163 -55.5341
lclavicle -6.75557e-015 -3.85642e-014
lhumerus 15.9157 1.16895 54.2881
lradius 115.429
lwrist 67.34
lhand -11.3206 -30.9289
lfingers 7.12502
lthumb 14.7116 -1.47088
rfemur 17.6829 2.56746 20.2939
rtibia -5.725e-014
rfoot -19.3556 -11.9613
rtoes -16.8985
lfemur 2.87158 -3.69809 -8.80753
ltibia 23.916
lfoot -22.0646 9.16664
ltoes -60.1193
755
root -1.47747 18.489 6.22674 -6.36335 -0.756743 -3.43514
lowerback 9.52077 -0.0113122 1.79318
upperback 1.38113 0.256523 2.05881
thorax -3.90503 0.114042 1.09549
lowerneck -7.89339 -5.18403 -5.29098
upperneck 40.9465 -7.00647 0.578949
head 16.1754 -3.70768 0.106105
rclavicle -1.89467e-015 1.59028e-015
rhumerus 9.51401 -11.273 -57.9577
rradius 115.453
rwrist -50.9809
rhand 0.483511 -27.2936
rfingers 7.12502
rthumb 26.0534 -55.527
lclavicle -1.89467e-015 1.59028e-015
lhumerus 18.0887 1.76197 54.2565
lradius 116.153
lwrist 67.9438
lhand -11.3508 -31.0024
lfingers 7.12502
lthumb 14.6825 -1.54228
rfemur 17.5759 2.59588 20.3659
rtibia 4.6118e-014
rfoot -19.3005 -11.9662
rtoes -16.8682
lfemur 2.74703 -3.67733 -8.71864
ltibia 23.968
lfoot -22.0131 9.17528
ltoes -60.1259
756
root -1.47597 18.4942 6.22235 -6.29252 -0.765609 -3.49126
lowerback 9.90861 -0.0136085 1.82294
upperback 1.47708 0.2637 1.9949
thorax -4.0205 0.116425 1.01187
lowerneck -7.41784 -5.20853 -5.30022
upperneck 41.3879 -7.05362 0.507707
head 16.2979 -3.74325 0.0777154
rclavicle 7.33018e-016 -6.55989e-015
rhumerus 11.5015 -11.8143 -57.8079
rradius 116.289
rwrist -51.5125
rhand 0.57775 -27.2307
rfingers 7.12502
rthumb 26.1436 -55.4508
lclavicle 7.33018e-016 -6.55989e-015
lhumerus 20.2245 2.29569 54.335
lradius 116.801
lwrist 68.5225
lhand -11.5852 -30.829
lfingers 7.12502
lthumb 14.4567 -1.35257
rfemur 17.4738 2.59975 20.417
rtibia -7.95139e-015
rfoot -19.3095 -11.9622
rtoes -16.597
lfemur 2.61818 -3.6561 -8.64787
ltibia 24.0307
lfoot -21.9364 9.18994
ltoes -60.0723
757
root -1.47554 18.4988 6.21799 -6.22148 -0.811808 -3.5802
lowerback 10.2567 -0.000548457 1.84258
upperback 1.60211 0.290186 1.97793
thorax -4.08356 0.129055 0.979849
lowerneck -6.90088 -5.21624 -5.4079
upperneck 41.7361 -7.08854 0.53559
head 16.3724 -3.77644 0.115033
rclavicle -5.95733e-015 1.70955e-014
rhumerus 13.0113 -12.3666 -57.697
rradius 117.274
rwrist -51.9946
rhand 0.919864 -27.2333
rfingers 7.12502
rthumb 26.4711 -55.4045
lclavicle -5.95733e-015 1.70955e-014
lhumerus 22.2388 2.77442 54.5281
lradius 117.421
lwrist 69.1061
lhand -11.876 -30.961
lfingers 7.12502
lthumb 14.1765 -1.46476
rfemur 17.3639 2.63476 20.5153
rtibia -1.74931e-014
rfoot -19.3216 -11.9731
rtoes -16.069
lfemur 2.49546 -3.59213 -8.53463
ltibia 24.0951
lfoot -21.8317 9.22742
ltoes -60.061
758
root -1.4759 18.5033 6.21305 -6.14165 -0.866872 -3.66522
lowerback 10.2768 0.0236189 1.89997
upperback 1.92389 0.315881 1.88153
thorax -3.75855 0.142756 0.842779
lowerneck -6.35248 -5.21651 -5.46772
upperneck 41.8277 -7.19845 0.777267
head 16.3111 -3.80738 0.232297
rclavicle 5.90142e-016 -3.18055e-015
rhumerus 13.91 -13.1563 -57.932
rradius 118.382
rwrist -52.6851
rhand 1.94227 -26.8358
rfingers 7.12502
rthumb 27.4494 -54.8558
lclavicle 5.90142e-016 -3.18055e-015
lhumerus 24.3948 3.26123 54.6312
lradius 118.012
lwrist 69.6217
lhand -12.0012 -31.3571
lfingers 7.12502
lthumb 14.0559 -1.85238
rfemur 17.2423 2.67802 20.6157
rtibia 2.22639e-014
rfoot -19.2743 -12.0375
rtoes -15.9416
lfemur 2.35237 -3.52187 -8.42622
ltibia 24.172
lfoot -21.7438 9.29467
ltoes -60.1335
759
root -1.47572 18.5089 6.20798 -6.04817 -0.880699 -3.72294
lowerback 10.5905 0.0385433 1.82806
upperback 2.04265 0.333062 1.84549
thorax -3.80877 0.151884 0.843399
lowerneck -5.82813 -5.16934 -5.39332
upperneck 42.1137 -7.2141 0.86664
head 16.3421 -3.79733 0.270326
rclavicle -3.80797e-015 9.24349e-015
rhumerus 16.0281 -13.6911 -57.5602
rradius 118.981
rwrist -53.9596
rhand 2.00615 -26.9829
rfingers 7.12502
rthumb 27.5105 -54.9932
lclavicle -3.80797e-015 9.24349e-015
lhumerus 26.0905 3.58516 54.8419
lradius 118.681
lwrist 70.0321
lhand -12.0163 -31.7524
lfingers 7.12502
lthumb 14.0413 -2.24665
rfemur 17.1131 2.68484 20.6786
rtibia 4.92986e-014
rfoot -19.1944 -12.138
rtoes -16.301
lfemur 2.17527 -3.53142 -8.36279
ltibia 24.2658
lfoot -21.6741 9.36937
ltoes -60.1197
760
root -1.47563 18.5152 6.20311 -5.94503 -0.895629 -3.78974
lowerback 11.0659 -0.0264426 1.61005
upperback 2.03252 0.244711 2.02254
thorax -4.08411 0.110293 1.16398
lowerneck -5.42298 -4.98885 -5.55044
upperneck 42.5963 -6.92129 0.811465
head 16.5051 -3.71111 0.325188
rclavicle -2.91965e-016 -1.27222e-014
rhumerus 17.3183 -13.7253 -57.2559
rradius 119.933
rwrist -54.5565
rhand 2.13272 -27.3357
rfingers 7.12502
rthumb 27.6315 -55.3267
lclavicle -2.91965e-016 -1.27222e-014
lhumerus 27.1982 4.03847 55.2785
lradius 119.463
lwrist 70.4153
lhand -12.1001 -31.9697
lfingers 7.12502
lthumb 13.9605 -2.45844
rfemur 16.9851 2.69272 20.7477
rtibia 1.74931e-014
rfoot -19.1648 -12.1499
rtoes -16.2912
lfemur 1.98541 -3.54817 -8.28619
ltibia 24.3663
lfoot -21.5625 9.40357
ltoes -60.022
761
root -1.476 18.5222 6.19854 -5.80948 -0.93726 -3.88539
lowerback 11.5233 0.0270636 1.54189
upperback 2.07554 0.321452 2.05345
thorax -4.29331 0.148622 1.22449
lowerneck -5.2934 -4.86371 -5.21515
upperneck 43.1101 -6.80443 0.762552
head 16.7349 -3.61419 0.260073
rclavicle -1.9543e-014 3.77691e-015
rhumerus 18.1548 -14.0536 -57.2613
rradius 120.975
rwrist -54.3729
rhand 2.36601 -27.7968
rfingers 7.12502
rthumb 27.8546 -55.7518
lclavicle -1.9543e-014 3.77691e-015
lhumerus 28.5854 4.11147 55.6642
lradius 120.293
lwrist 70.8195
lhand -12.2549 -32.2631
lfingers 7.12502
lthumb 13.8113 -2.7416
rfemur 16.8184 2.72445 20.8488
rtibia -1.74931e-014
rfoot -19.1322 -12.1198
rtoes -16.0316
lfemur 1.76541 -3.48559 -8.15906
ltibia 24.4748
lfoot -21.4011 9.37481
ltoes -59.9292
762
root -1.47516 18.5304 6.1945 -5.63482 -0.983976 -3.93353
lowerback 11.9469 0.0948468 1.5068
upperback 2.13748 0.415811 2.01663
thorax -4.46347 0.19498 1.19188
lowerneck -5.1699 -4.65219 -4.45579
upperneck 43.5499 -6.50679 0.396304
head 16.8779 -3.41256 0.00673793
rclavicle -1.33807e-014 -5.66536e-015
rhumerus 19.3051 -14.3878 -57.3949
rradius 121.853
rwrist -54.2801
rhand 2.6113 -27.9367
rfingers 7.12502
rthumb 28.0891 -55.8535
lclavicle -1.33807e-014 -5.66536e-015
lhumerus 29.8492 4.12196 55.9984
lradius 121.258
lwrist 71.2496
lhand -12.3229 -32.6809
lfingers 7.12502
lthumb 13.7459 -3.15499
rfemur 16.5984 2.76915 20.8925
rtibia 1.59028e-015
rfoot -19.0853 -12.1259
rtoes -15.8328
lfemur 1.50723 -3.45074 -8.0949
ltibia 24.5974
lfoot -21.333 9.35187
ltoes -59.7923
763
root -1.47185 18.5393 6.18972 -5.43049 -1.00578 -3.96749
lowerback 12.3626 0.160865 1.62212
upperback 2.16268 0.521216 1.8542
thorax -4.66493 0.2436 0.940074
lowerneck -4.80716 -4.4479 -3.68245
upperneck 43.8488 -6.37743 0.40296
head 16.9114 -3.23393 -0.0991416
rclavicle 3.27995e-015 -8.54774e-015
rhumerus 20.2695 -14.7954 -57.5995
rradius 122.78
rwrist -54.7
rhand 2.83561 -27.6068
rfingers 7.12502
rthumb 28.3035 -55.4882
lclavicle 3.27995e-015 -8.54774e-015
lhumerus 31.0195 4.06056 56.1671
lradius 122.3
lwrist 71.8883
lhand -12.2875 -32.981
lfingers 7.12502
lthumb 13.7799 -3.45731
rfemur 16.3453 2.79313 20.9095
rtibia -7.95139e-015
rfoot -19.0163 -12.1632
rtoes -15.9021
lfemur 1.20448 -3.43085 -8.05441
ltibia 24.7249
lfoot -21.2603 9.35847
ltoes -59.7749
